<mxfile host="Electron" modified="2024-01-22T20:08:50.644Z" agent="Mozilla/5.0 (Macintosh; Intel Mac OS X 10_15_7) AppleWebKit/537.36 (KHTML, like Gecko) draw.io/22.1.21 Chrome/120.0.6099.109 Electron/28.1.0 Safari/537.36" etag="24tSCydagQlJRvV8uO7h" version="22.1.21" type="device">
  <diagram name="Page-1" id="qCLb-ooyRNMUHMCF8lpI">
    <mxGraphModel dx="1434" dy="931" grid="1" gridSize="10" guides="1" tooltips="1" connect="1" arrows="1" fold="1" page="1" pageScale="1" pageWidth="1200" pageHeight="800" background="#FFFFCC" math="0" shadow="0">
      <root>
        <mxCell id="0" />
        <mxCell id="1" parent="0" />
        <mxCell id="KG1SVBQDoy7QbmNyAMiG-1" value="" style="endArrow=none;dashed=1;html=1;rounded=0;fillColor=#d5e8d4;strokeColor=#82b366;sketch=1;curveFitting=1;jiggle=2;strokeWidth=4;" parent="1" edge="1">
          <mxGeometry width="50" height="50" relative="1" as="geometry">
            <mxPoint x="2" y="523" as="sourcePoint" />
            <mxPoint x="1197" y="523" as="targetPoint" />
          </mxGeometry>
        </mxCell>
        <mxCell id="KG1SVBQDoy7QbmNyAMiG-2" value="" style="rounded=0;whiteSpace=wrap;html=1;strokeColor=none;fillColor=#d5e8d4;sketch=1;curveFitting=1;jiggle=2;shadow=0;" parent="1" vertex="1">
          <mxGeometry y="520" width="1200" height="280" as="geometry" />
        </mxCell>
        <mxCell id="KG1SVBQDoy7QbmNyAMiG-11" style="edgeStyle=orthogonalEdgeStyle;orthogonalLoop=1;jettySize=auto;html=1;curved=1;fillColor=#dae8fc;strokeColor=#6c8ebf;strokeWidth=2;sketch=1;curveFitting=1;jiggle=2;shadow=0;entryX=0;entryY=0.5;entryDx=0;entryDy=0;exitX=0.441;exitY=-0.009;exitDx=0;exitDy=0;exitPerimeter=0;" parent="1" source="KG1SVBQDoy7QbmNyAMiG-3" target="KG1SVBQDoy7QbmNyAMiG-4" edge="1">
          <mxGeometry relative="1" as="geometry">
            <Array as="points">
              <mxPoint x="147" y="255" />
            </Array>
          </mxGeometry>
        </mxCell>
        <mxCell id="KG1SVBQDoy7QbmNyAMiG-3" value="gesture" style="ellipse;whiteSpace=wrap;html=1;fontSize=30;fillColor=#e1d5e7;strokeColor=#9673a6;sketch=1;curveFitting=1;jiggle=2;shadow=0;fontColor=#330066;" parent="1" vertex="1">
          <mxGeometry x="50" y="370" width="220" height="110" as="geometry" />
        </mxCell>
        <mxCell id="KG1SVBQDoy7QbmNyAMiG-12" style="edgeStyle=orthogonalEdgeStyle;orthogonalLoop=1;jettySize=auto;html=1;entryX=0;entryY=0.5;entryDx=0;entryDy=0;exitX=0.5;exitY=0;exitDx=0;exitDy=0;curved=1;fillColor=#dae8fc;strokeColor=#6c8ebf;strokeWidth=2;sketch=1;curveFitting=1;jiggle=2;" parent="1" source="KG1SVBQDoy7QbmNyAMiG-4" target="KG1SVBQDoy7QbmNyAMiG-5" edge="1">
          <mxGeometry relative="1" as="geometry">
            <mxPoint x="345" y="130" as="targetPoint" />
          </mxGeometry>
        </mxCell>
        <mxCell id="KG1SVBQDoy7QbmNyAMiG-4" value="sensors" style="ellipse;whiteSpace=wrap;html=1;fontSize=30;fillColor=#e1d5e7;strokeColor=#9673a6;sketch=1;curveFitting=1;jiggle=2;shadow=0;fontColor=#330066;" parent="1" vertex="1">
          <mxGeometry x="240" y="200" width="220" height="110" as="geometry" />
        </mxCell>
        <mxCell id="KG1SVBQDoy7QbmNyAMiG-14" style="edgeStyle=orthogonalEdgeStyle;orthogonalLoop=1;jettySize=auto;html=1;exitX=1;exitY=0.5;exitDx=0;exitDy=0;entryX=0.5;entryY=0;entryDx=0;entryDy=0;curved=1;fillColor=#dae8fc;strokeColor=#6c8ebf;strokeWidth=2;sketch=1;curveFitting=1;jiggle=2;shadow=0;" parent="1" source="KG1SVBQDoy7QbmNyAMiG-5" target="KG1SVBQDoy7QbmNyAMiG-6" edge="1">
          <mxGeometry relative="1" as="geometry" />
        </mxCell>
        <mxCell id="KG1SVBQDoy7QbmNyAMiG-5" value="electronic circuits" style="ellipse;whiteSpace=wrap;html=1;fontSize=30;fillColor=#e1d5e7;strokeColor=#9673a6;sketch=1;curveFitting=1;jiggle=2;shadow=0;fontColor=#330066;" parent="1" vertex="1">
          <mxGeometry x="490" y="60" width="220" height="110" as="geometry" />
        </mxCell>
        <mxCell id="KG1SVBQDoy7QbmNyAMiG-15" style="edgeStyle=orthogonalEdgeStyle;orthogonalLoop=1;jettySize=auto;html=1;exitX=1;exitY=0.5;exitDx=0;exitDy=0;fillColor=#dae8fc;strokeColor=#6c8ebf;strokeWidth=2;sketch=1;curveFitting=1;jiggle=2;curved=1;entryX=0.5;entryY=0;entryDx=0;entryDy=0;" parent="1" source="KG1SVBQDoy7QbmNyAMiG-6" target="KG1SVBQDoy7QbmNyAMiG-7" edge="1">
          <mxGeometry relative="1" as="geometry">
            <mxPoint x="1050" y="240" as="targetPoint" />
          </mxGeometry>
        </mxCell>
        <mxCell id="KG1SVBQDoy7QbmNyAMiG-6" value="computaional model" style="ellipse;whiteSpace=wrap;html=1;fontSize=30;fillColor=#e1d5e7;strokeColor=#9673a6;sketch=1;curveFitting=1;jiggle=2;shadow=0;fontColor=#330066;" parent="1" vertex="1">
          <mxGeometry x="740" y="200" width="220" height="110" as="geometry" />
        </mxCell>
        <mxCell id="KG1SVBQDoy7QbmNyAMiG-17" style="edgeStyle=orthogonalEdgeStyle;orthogonalLoop=1;jettySize=auto;html=1;exitX=0.5;exitY=1;exitDx=0;exitDy=0;entryX=1;entryY=0.5;entryDx=0;entryDy=0;fillColor=#dae8fc;strokeColor=#6c8ebf;strokeWidth=2;sketch=1;curveFitting=1;jiggle=2;curved=1;" parent="1" source="KG1SVBQDoy7QbmNyAMiG-7" target="KG1SVBQDoy7QbmNyAMiG-9" edge="1">
          <mxGeometry relative="1" as="geometry" />
        </mxCell>
        <mxCell id="KG1SVBQDoy7QbmNyAMiG-7" value="output parameters" style="ellipse;whiteSpace=wrap;html=1;fontSize=30;fillColor=#e1d5e7;strokeColor=#9673a6;sketch=1;curveFitting=1;jiggle=2;shadow=0;fontColor=#330066;" parent="1" vertex="1">
          <mxGeometry x="930" y="370" width="220" height="110" as="geometry" />
        </mxCell>
        <mxCell id="KG1SVBQDoy7QbmNyAMiG-19" style="edgeStyle=orthogonalEdgeStyle;orthogonalLoop=1;jettySize=auto;html=1;exitX=0;exitY=0.5;exitDx=0;exitDy=0;entryX=0.5;entryY=1;entryDx=0;entryDy=0;fillColor=#dae8fc;strokeColor=#6c8ebf;strokeWidth=2;sketch=1;curveFitting=1;jiggle=2;curved=1;" parent="1" source="KG1SVBQDoy7QbmNyAMiG-8" target="KG1SVBQDoy7QbmNyAMiG-3" edge="1">
          <mxGeometry relative="1" as="geometry" />
        </mxCell>
        <mxCell id="KG1SVBQDoy7QbmNyAMiG-8" value="performer (perception)" style="ellipse;whiteSpace=wrap;html=1;fontSize=30;fillColor=#fff2cc;strokeColor=#d6b656;shadow=0;gradientColor=none;" parent="1" vertex="1">
          <mxGeometry x="320" y="630" width="220" height="110" as="geometry" />
        </mxCell>
        <mxCell id="KG1SVBQDoy7QbmNyAMiG-18" style="edgeStyle=orthogonalEdgeStyle;orthogonalLoop=1;jettySize=auto;html=1;fillColor=#dae8fc;strokeColor=#6c8ebf;strokeWidth=2;sketch=1;curveFitting=1;jiggle=2;curved=1;dashed=1;" parent="1" source="KG1SVBQDoy7QbmNyAMiG-9" target="KG1SVBQDoy7QbmNyAMiG-8" edge="1">
          <mxGeometry relative="1" as="geometry" />
        </mxCell>
        <mxCell id="KG1SVBQDoy7QbmNyAMiG-9" value="output media" style="ellipse;whiteSpace=wrap;html=1;fontSize=30;fillColor=#fff2cc;strokeColor=#d6b656;shadow=0;" parent="1" vertex="1">
          <mxGeometry x="660" y="630" width="220" height="110" as="geometry" />
        </mxCell>
        <mxCell id="KG1SVBQDoy7QbmNyAMiG-20" value="&lt;font style=&quot;font-size: 33px;&quot;&gt;&quot;Invisible&quot;&lt;/font&gt;" style="text;html=1;align=center;verticalAlign=middle;whiteSpace=wrap;rounded=0;sketch=1;curveFitting=1;jiggle=2;fillColor=#f5f5f5;fontColor=#333333;strokeColor=#666666;shadow=0;" parent="1" vertex="1">
          <mxGeometry x="510" y="360" width="180" height="60" as="geometry" />
        </mxCell>
      </root>
    </mxGraphModel>
  </diagram>
</mxfile>
